/* XPM */
static char *_02f45346cde4c05be5ae5aaa163ca3e3ignBypQuUEh6kBG[] = {
/* columns rows colors chars-per-pixel */
"32 32 13 1 ",
"  c None",
". c #604800",
"X c #174159",
"o c #CB9500",
"O c #F8BB0B",
"+ c #F7D76E",
"@ c #27739B",
"# c #5AAED8",
"$ c #AAAAAA",
"% c #ADD6EC",
"& c gray87",
"* c #D5EBF4",
"= c white",
/* pixels */
"                                ",
"               XX               ",
"             XX$$&&$$ XX        ",
"           XX$$&&$$&XX%%X       ",
"  *      XX$==&$$&XX%%##X  *    ",
" *=*   XX$==&$$&XX%%####X *=*   ",
"  *  XX$==&&&=XX%%######X  *    ",
"   XX$&&&$$&XX%%######O##X      ",
"  X#XXXXX&XX%%######+OO##X      ",
"  X@#####X#%######++oooO#X      ",
"  X@@@@@@X@#####O+oo@@oO#X      ",
"  X@@@@@@X@@##OOoo@##@oO##X     ",
"   .o@@#@X@@@OOo@####@o+##X     ",
"   X@oO+ooX@@oO#######@o+#X     ",
"   X@@@@@@X@@oO@######@o+#X     ",
"   .o@@@@@X@@oO@@#####@oO##X    ",
"    XooO+oX@@@oO@@####@oO##X    ",
"    X@@@#@@X@@o+@@@@###@oO#X    ",
"    X@@@@@@X@@o+@@@@@@#@oO#X    ",
"    X@@@@@@X@@oO@@@@@@@@OO##X   ",
"     X@@@@@X@@@oO@@@@@+Ooo##X   ",
"     X@@@@@@X@@oO@@@++oo@@@#X   ",
"     X@@@@@@X@@oO@O+oo@@@@@@X   ",
"     X@@@@@@X@@oOOoo@@@@@@XX    ",
"      X@@@@@X@@@oo@@@@@@XX      ",
"      .o@@#@@X@@@@@@@@XX        ",
"   *  X@oo+OoX@@@@@@XX          ",
"  *=* X@@@#@@X@@@@XX    *       ",
"   *   X@@@@@X@@XX     *=*      ",
"       @XXXXX@XX        *       ",
"                                ",
"                                "
};
