/* XPM */
static char *_628074565667[] = {
/* columns rows colors chars-per-pixel */
"32 32 47 1 ",
"  c #4B3747",
". c #4A3448",
"X c #543F4A",
"o c #584C46",
"O c #554249",
"+ c #59444C",
"@ c #5C4B4A",
"# c #5F5049",
"$ c #64544C",
"% c #69574E",
"& c #6B594E",
"* c #664F50",
"= c #694F52",
"- c #6B5452",
"; c #735657",
": c #715C52",
"> c #756153",
", c #7A6555",
"< c #7E6956",
"1 c #7E635A",
"2 c #816A57",
"3 c #83665C",
"4 c #846C59",
"5 c #896E5C",
"6 c #87705B",
"7 c #8C735C",
"8 c #91765E",
"9 c #93785F",
"0 c #8D6F61",
"q c #927563",
"w c #957B61",
"e c #9A7E62",
"r c #9D8164",
"t c #A38565",
"y c #A78867",
"u c #A88967",
"i c #A48768",
"p c #A68968",
"a c #AB8C69",
"s c #AF906C",
"d c #B3936E",
"f c #B79770",
"g c #B89770",
"h c #B79870",
"j c #BA9971",
"k c #C09F74",
"l c #C2A075",
/* pixels */
"ttttttttataaskae96r999agsuadtttt",
"tttrttttaiauaae9w5pai8ttttttttt9",
"asasatpsaaasatw7<6e9uddaaiuuiau9",
"76881,67w7eee87768t<<47632676e76",
"e9tt08wwtasatatt84w4,268etttasar",
"tte9677eetttthdtrr8,9e87ee99tttt",
"tttaahsisausdaaiw8,&99aatautdatt",
"tttuahstsausdauiada7aidduauiaaut",
"9r9tttttttttutttidjejlghdaauete9",
"9ietteteiaaat4674we,69r99ww98997",
"765<3433;,,>:&ddssut898651;-,324",
"taaay9eta8544owddsudt9uatr6>ettt",
"ttttteettt977$2rttiautttrtt94>88",
"tpyyttttttt75%gjdsuiuttttttttttt",
"sssattttttt72+gddhjsassstttttttt",
"7eeayuyett732X9ddhhatau9rtuuuutt",
"6rrrrrr9t86,=.O@@-%@+@,w8rtrr76<",
"r8>,<r97eeteqq335w5;+O6r08e999eq",
"pur99pu966eeetutiur9$#44wee6wepf",
"ptuttttttttttttuahrw:#0atptttiii",
"haasttttttttaaadddtw&#5kjjdaaatt",
"7tr8ttr9eeruituuuau9&O,jhdiiapui",
"<8r8w96457:9rwetipw,O.+:,27rrrri",
"8rrrrad9eh$#88wit99rwqqer76,6re9",
"pppaujj88s&:759ur9tuiaaiai929uut",
"prtttaardh&>writuutuutttttttutuu",
"rrysasa64a%:thdaddaaatttttttaaad",
"8rrhddhpra*:ssdauuauuittut7rt877",
"6etr9>&::=X$r9tu9rrr777w955rtr4,",
"<6trrrq636we9rr7>>r9weeee6rttr5,",
"6riauaiuuua98r844%9ruuutiitut898",
"ttttttttttttttrr64rttttttutttttt"
};
