/* XPM */
static char *_628082475256[] = {
/* columns rows colors chars-per-pixel */
"32 32 195 2 ",
"   c #3C1602",
".  c #3D332B",
"X  c #431C06",
"o  c #5C2509",
"O  c #59381E",
"+  c #442B1C",
"@  c #622709",
"#  c #662A0B",
"$  c #6C2C0B",
"%  c #722F0E",
"&  c #74310E",
"*  c #7C340F",
"=  c #6E3113",
"-  c #793412",
";  c #533B26",
":  c #483D30",
">  c #483628",
",  c #45453A",
"<  c #3A4C4D",
"1  c #3E5A5D",
"2  c #3D5E61",
"3  c #2F6565",
"4  c #306665",
"5  c #3C6365",
"6  c #3A6B6C",
"7  c #386A6B",
"8  c #237272",
"9  c #2C7474",
"0  c #49514D",
"q  c #485959",
"w  c #4C514E",
"e  c #6B574B",
"r  c #785847",
"t  c #6D675E",
"y  c #515F60",
"u  c #435C62",
"i  c #4D6060",
"p  c #556668",
"a  c #4A6D73",
"s  c #47797E",
"d  c #49797D",
"f  c #756B64",
"g  c #666762",
"h  c #863B15",
"j  c #873C18",
"k  c #8A3E19",
"l  c #8C3B12",
"z  c #923F14",
"x  c #8E411C",
"c  c #8F4017",
"v  c #94421B",
"b  c #9C461B",
"n  c #9E491F",
"m  c #964216",
"M  c #A34B1E",
"N  c #AA4D1E",
"B  c #954723",
"V  c #954925",
"C  c #9D4A23",
"Z  c #964D2B",
"A  c #9F502D",
"S  c #8A553B",
"D  c #895236",
"F  c #8C4423",
"G  c #A44C21",
"H  c #A94F23",
"J  c #A14F29",
"K  c #AB5123",
"L  c #A4522C",
"P  c #AB552B",
"I  c #AE592F",
"U  c #B25526",
"Y  c #B1592F",
"T  c #BB5C2C",
"R  c #B1562B",
"E  c #A55532",
"W  c #AA5732",
"Q  c #AB5A34",
"!  c #AD5C3A",
"~  c #B35B34",
"^  c #BA5E35",
"/  c #B35F3B",
"(  c #B5613E",
")  c #BC633D",
"_  c #BD6438",
"`  c #C3602E",
"'  c #C6673C",
"]  c #C9673B",
"[  c #C5683D",
"{  c #CC6A3A",
"}  c #CA6634",
"|  c #D26D3C",
" . c #DB723D",
".. c #8A5C44",
"X. c #906957",
"o. c #B66442",
"O. c #BA6644",
"+. c #BC6946",
"@. c #BE6B49",
"#. c #BF7656",
"$. c #867D79",
"%. c #C46A44",
"&. c #CB6D46",
"*. c #C36E49",
"=. c #CD6F48",
"-. c #C16742",
";. c #D36F45",
":. c #C3734E",
">. c #D57245",
",. c #D97444",
"<. c #D77548",
"1. c #C07553",
"2. c #E37743",
"3. c #E57944",
"4. c #8F817A",
"5. c #A88C7F",
"6. c #A48A7D",
"7. c #4E7B81",
"8. c #3E9B9D",
"9. c #359192",
"0. c #398586",
"q. c #448185",
"w. c #488587",
"e. c #5A888A",
"r. c #5B8C92",
"t. c #439192",
"y. c #589A9E",
"u. c #64868D",
"i. c #6B8E94",
"p. c #6D9397",
"a. c #65979C",
"s. c #6A979A",
"d. c #7B9999",
"f. c #5A9CA1",
"g. c #6599A0",
"h. c #6E9BA3",
"j. c #41A6A7",
"k. c #49AAAC",
"l. c #56A4A6",
"z. c #5CA6AC",
"x. c #5FA9AF",
"c. c #56A7AC",
"v. c #4DAFB2",
"b. c #55AFB0",
"n. c #4DB1B4",
"m. c #4BB5B7",
"M. c #5CB5BB",
"N. c #53B0B1",
"B. c #6AA1A5",
"V. c #64A6AC",
"C. c #6BA2AA",
"Z. c #62A9AD",
"A. c #69A8AF",
"S. c #76A2A2",
"D. c #66AEB4",
"F. c #68ADB4",
"G. c #63B1B5",
"H. c #68B0B6",
"J. c #64B5BB",
"K. c #64BABF",
"L. c #5FBEC3",
"P. c #62BCC1",
"I. c #55C2C5",
"U. c #5EC1C5",
"Y. c #55C5C9",
"T. c #53CCCE",
"R. c #5CCACE",
"E. c #5DC6CA",
"W. c #53CED0",
"Q. c #51D2D4",
"!. c #5AD1D4",
"~. c #58D6D9",
"^. c #62C0C5",
"/. c #84898A",
"(. c #8A9C9D",
"). c #8C9394",
"_. c #949293",
"`. c #B49182",
"'. c #BE9684",
"]. c #9DB9B9",
"[. c #AABBBB",
"{. c #B4BFBF",
"}. c #B2B6B6",
"|. c #C19784",
" X c None",
".X c None",
"XX c None",
"oX c None",
"OX c None",
"+X c None",
"@X c None",
"#X c None",
"$X c None",
"%X c None",
"&X c None",
/* pixels */
"%X%X%X%X%X%X%X%X%X#X[.p.a.j.8.t.8.8.j.a.d.{.@X&X%X%X%X%X%X%X%X%X",
"%X%X%X%X%X%X#X[.s.N.k.z.x.U.M.a.B.I.M.x.z.v.l.S.XX$X%X%X%X%X%X%X",
"%X%X%X%X$X].N.n.x.G.M.e.i i , > : , i p y.M.D.z.n.G.XX&X%X%X%X%X",
"%X%X&XoXB.l.Z.J.e.0 , ; $ * b x x x $ $ ; , q y.J.Z.l.S.+X%X%X%X",
"%X%X}.t.Y.A.u.0 = - F E ~ K <.+.+.( n | R x % ; i i.D.I.q.+X%X%X",
"%X+Xw.M.C.r.> $ N ,.%.%.) K ,.@.@.( M ,.&.&.[ l = , f.h.n.u.$X%X",
"@Xe.m.J.a.. % A U <.&.%.( K ,.&.&.o.n >.+.>.[ n ` @ < a.K.k.d.$X",
"_.9.D.A.< o E ! U >.&.&.( K ,.&.&.( n >.+.&.-.n ,.Z o 5 A.J.0..X",
"d v.F.d + x +.Q P >.@.&.( H <.&.&.( n ,.O.%.] M ,.o.- . e.J.k.d.",
"9 !.J.a o { +.Q K >.O.+.! G 2.-.%.( n ,.O.%.%.M ,.O.E   q.P.T.4 ",
"8 K.i.e c T I P K T P I P G T I Y P M T W Y P M T P P h t s.I.4 ",
"8 ~.a.Y  .) #.@.[ _ :.#.[ -.[ %.#.[ %.-.%.1.-.-.[ #.@.[ D Z.Q.4 ",
"8 K.p.e * x x h h k k k j h k k x j h k k k k h k k k = g s.I.4 ",
"8 !.K.7 @ } ( L G { ( ! E M | ( ! ~ b ] ! / ! v } ) E X q.P.Q.4 ",
"8 U.B.1 # | X.S U <.=.@.! H ,.&.*.[ M ,.+.+.O.n 3.;.^ X a C.I.4 ",
"8 R.D.5 # ) f e K >.&.&.( H <.&.=.) n ,.%.%.o.n 2.&.^ X d H.T.4 ",
"8 R.D.5 #  .r D U <.O.&.( K ,.-.;.) C ,.@.&.( n 2.>._ X s D.W.3 ",
"8 L.C.q #  .r D U <.O.%.( K >.+.;.) n ,.-.&.O.n  .&.~ X a C.Y.3 ",
"8 !.P.6 # ] f r K <.+.@.' H ,.@.;.) n ,.&.;.-.n ,.=.^ X q.P.Q.3 ",
"8 M.s.1 # [ X.r H <.O.+.) H ,.@.%./ M ,.&.&.-.n ,.%.~ X a h.I.4 ",
"8 ~.^.6 #  .@.Q U ,.O.@.( K ,.@.+.o.n 2.&.%.%.n ,.@.Q X w.^.~.4 ",
"8 P.s.y & T Q J M ^ W ~ P M _ P W E b } ~ Q Y b T Q L o p h.I.4 ",
"8 !.p.Q | ] :.%.] ] -.:.] ] ] %.:.' ' ] %.:.] ] ] :.&.] S V.Q.4 ",
"8 U.p...B V Z V V V V Z V V V V Z B B B V Z V B V Z V F e h.Y.4 ",
"8 E.Z.5 o U P V m P L L V z R L L C z R L H L l U A V X d H.T.4 ",
"8 R.D.5 $  .=.^ U <.&.&.! H ,.=.=.) M ,.&.&.+.n ,.+.!   s J.W.4 ",
"9 c.u.< o } ) P M | ) ( E b | O.) ^ v { ( ( ! v { ( L   i u.v.6 ",
"{.(.)./.4.'.'.`.5. X'.'.`.`. X'.'.'.6.'.'.'.`.6.|.'.`.4./.).(.OX",
"%X%X%X%X%X%X%X%X%X%X%X%X%X%X%X%X%X%X%X%X%X%X%X%X%X%X%X%X%X%X%X%X",
"%X%X%X%X%X%X%X%X%X%X%X%X%X%X%X%X%X%X%X%X%X%X%X%X%X%X%X%X%X%X%X%X",
"%X%X%X%X%X%X%X%X%X%X%X%X%X%X%X%X%X%X%X%X%X%X%X%X%X%X%X%X%X%X%X%X",
"%X%X%X%X%X%X%X%X%X%X%X%X%X%X%X%X%X%X%X%X%X%X%X%X%X%X%X%X%X%X%X%X"
};
