/* XPM */
static char *_628082485235[] = {
/* columns rows colors chars-per-pixel */
"32 32 194 2 ",
"   c #191C1E",
".  c #131618",
"X  c #23272A",
"o  c #24292C",
"O  c #2D2C2D",
"+  c #242527",
"@  c #362D2A",
"#  c #292E31",
"$  c #262F32",
"%  c #22383A",
"&  c #4F1E04",
"*  c #511F04",
"=  c #542309",
"-  c #562206",
";  c #40291E",
":  c #642809",
">  c #6D3B20",
",  c #7C3F20",
"<  c #774124",
"1  c #77462D",
"2  c #734832",
"3  c #2F3F42",
"4  c #195757",
"5  c #1A5857",
"6  c #1A5858",
"7  c #2C4547",
"8  c #344649",
"9  c #265F5F",
"0  c #3D5255",
"q  c #3C5D61",
"w  c #1D6262",
"e  c #3E7577",
"r  c #286868",
"t  c #42595E",
"y  c #5E5B4C",
"u  c #7A5A49",
"i  c #54605F",
"p  c #7E604F",
"a  c #766557",
"s  c #455F63",
"d  c #446467",
"f  c #49666C",
"g  c #48676A",
"h  c #456D71",
"j  c #46767A",
"k  c #447679",
"l  c #5E6462",
"z  c #7F6D62",
"x  c #7A7978",
"c  c #6D736D",
"v  c #86370F",
"b  c #893B14",
"n  c #813F1D",
"m  c #843A14",
"M  c #923F15",
"N  c #813E21",
"B  c #83401E",
"V  c #8B411C",
"C  c #94441C",
"Z  c #99441A",
"A  c #9C4B23",
"S  c #944925",
"D  c #934F30",
"F  c #995636",
"G  c #894C2D",
"H  c #A34C22",
"J  c #A34E28",
"K  c #AC5124",
"L  c #A4522D",
"P  c #AC542D",
"I  c #AA5F2E",
"U  c #B55626",
"Y  c #B2562B",
"T  c #B6592C",
"R  c #BB5A2A",
"E  c #B95727",
"W  c #A65B39",
"Q  c #B45C35",
"!  c #BA5E33",
"~  c #AC603A",
"^  c #BE6234",
"/  c #BA643B",
"(  c #C25E2B",
")  c #CA632F",
"_  c #C5612F",
"`  c #C36133",
"'  c #CA6431",
"]  c #CB693B",
"[  c #C2663B",
"{  c #D26B36",
"}  c #D36C39",
"|  c #D86E38",
" . c #D7713E",
".. c #DC723C",
"X. c #E3753E",
"o. c #EC773C",
"O. c #F47C3F",
"+. c #855D48",
"@. c #A35F44",
"#. c #886A57",
"$. c #AB674B",
"%. c #BD6B45",
"&. c #B66B4B",
"*. c #BB7557",
"=. c #A77054",
"-. c #BA7B61",
";. c #C56D44",
":. c #C96F46",
">. c #C47944",
",. c #C87448",
"<. c #D77442",
"1. c #C27552",
"2. c #E47741",
"3. c #E47D46",
"4. c #F77F42",
"5. c #9C8175",
"6. c #BD8B78",
"7. c #DB955A",
"8. c #CD854B",
"9. c #EF8043",
"0. c #FB8244",
"q. c #FF8C4C",
"w. c #F78547",
"e. c #FE9A56",
"r. c #EA8E53",
"t. c #F9A35D",
"y. c #C8966E",
"u. c #D6A164",
"i. c #EDA965",
"p. c #E5A665",
"a. c #F2AA66",
"s. c #F2A360",
"d. c #447E82",
"f. c #3B9798",
"g. c #388E8E",
"h. c #448688",
"j. c #58898B",
"k. c #579396",
"l. c #489393",
"z. c #678789",
"x. c #6C9597",
"c. c #6C969D",
"v. c #65989C",
"b. c #769B9B",
"n. c #678B93",
"m. c #6E9AA2",
"M. c #47A9AA",
"N. c #59A7AB",
"B. c #46AFB1",
"V. c #52AFB3",
"C. c #4AB4B6",
"Z. c #58B4B8",
"A. c #6CA2A9",
"S. c #69A4AB",
"D. c #66ADB4",
"F. c #68ADB3",
"G. c #66B4BA",
"H. c #64B8BE",
"J. c #68B2B8",
"K. c #73A2A3",
"L. c #5EBEC3",
"P. c #63BCC1",
"I. c #5CC2C6",
"U. c #5BC5C9",
"Y. c #5ACBCE",
"T. c #51C3C6",
"R. c #57CFD2",
"E. c #5BCED2",
"W. c #56D3D6",
"Q. c #59D3D6",
"!. c #55D6D9",
"~. c #58D5D8",
"^. c #62C0C5",
"/. c #808181",
"(. c #858A8B",
"). c #8C9798",
"_. c #A19F9F",
"`. c #9FB9B9",
"'. c #A8BFBF",
"]. c #B3B7B7",
"[. c #C4A193",
"{. c #CEB3AA",
"}. c #B9C3C3",
"|. c #C8CECE",
" X c None",
".X c None",
"XX c None",
"oX c None",
"OX c None",
"+X c None",
"@X c None",
"#X c None",
"$X c None",
"%X c None",
/* pixels */
"$X$X$X$X$X$X$X$X%X X].x.x.M.f.f.l.y I >.A K $.{.#X$X$X$X$X$X$X$X",
"$X$X$X$X$X$X X}.c.N.B.N.N.Z.H.z.=.9.t.r.H | J Y 6.oX$X$X$X$X$X$X",
"$X$X$X$X+X'.V.C.D.D.Z.k.g 8 7 > o.t.>...Z  .Y _ Q a `.+X$X$X$X$X",
"$X$X$X|.K.N.S.G.k.t 7 % o O @ R 0.t.~ X.H  .P ' Q > j.S.|.%X$X$X",
"$X$X|.l.T.D.n.d % X o # # @ , o.e.7.A X.H  .L ) _ Z a T.l.}.$X$X",
"$XoXj.V.S.k.7 o o # # # # @ K 0.e.7.A X.H { L ) ` E F n.Z.k..X$X",
"OXb.C.H.v.8 + # # # # # O > | q.t.,.A X.H | P ) ^ E ~ z H.C.z.OX",
"].g.G.S.q + # # # # # # O n 0.q.i.;.H  .A | P ) ` R ] 2 k.H.g._.",
"z.B.J.j.$ o # # # # # # O n O.| >.P Z ] C { L ' ^ E ] - d J.B.z.",
"4 W.H.d.  # # # # # # # O n ( ( ] ,.^ _ H T C U L T [ - k G.W.w ",
"6 U.m.f   # # # # # # # O n X.( S F ~ $.1.;.%.^ T K K - i c.L.w ",
"4 ~.P.h.  # # # # # # # O n 4.w.8.A v C m S W W *.;.1.L z.L.W.w ",
"6 I.m.f   # # # # # # # O n 4.q.a.,.A } C U b Z V b F , i c.L.w ",
"6 W.P.d.  # # # # # # # O n 4.q.a.%.S  .A { L ` P K H & k H.Q.w ",
"6 U.m.h   # # # # # # # O n 4.q.u.#.u <.A | P _ Q R ] = d A.U.w ",
"6 R.G.j   # # # # # # # O n 4.q.u.c p <.A | Y _ / R } - h F.Y.w ",
"6 R.J.j   # # # # # # # O n 4.q.i.+.< 2.H | P ) ^ E :.- h D.E.w ",
"6 U.K.h   # # # # # # # O n 4.q.a.+., 2.H { L ) ^ E ] = d m.U.w ",
"6 W.P.d.  # # # # o # # O n 4.q.p.p 2 2.H | P _ Q T } = e P.Q.w ",
"6 U.m.f   # # # # # # # O n 4.q.y.x a <.H  .Y ' ^ E <.* s m.P.w ",
"6 W.P.h.  # # # # # # # O n O.q.p.#.G <.A } L ) ^ E ] = e P.~.w ",
"6 U.m.f   # # # # # # # O n 4.q.i.:.H X.H ] L _ I U ! : i m.I.w ",
"6 W.P.d.  # # # # # # # O n 4.q.a.,.A  .Z ' A U T T [ Q 1 m.~.w ",
"6 U.A.h   # # # # # # # O , 4.4.7.T Z ( R [ ,.;.*.%.$.D u x.U.w ",
"6 R.F.k   # # # # # # # # N { ( ` ;.:.1.&.W F C n v b & h D.Y.w ",
"4 R.J.d.  # # # # # # # O N ) ( I @.S b m M b K H E ] ; h D.E.w ",
"9 Z.n.0 . X X X # o X X O N 4.X.I M b ` C | P ' ` R ] & 0 z.V.r ",
"}.).).(.x /././.(.#.z./.#.+.4.q.a.:.H 2.J | L ' ! K &.-.(.).).}.",
"$X$X$X$X$X$X$X$X$X$X$X$X@X$.4.q.i.;.J <.H { J ! -.[.oX$X$X$X$X$X",
"$X$X$X$X$X$X$X$X$X$X$X$X@X$.O.q.i.%.J | A ` 6.{.@X$X$X$X$X$X$X$X",
"$X$X$X$X$X$X$X$X$X$X$X$X@X$.4.q.i.%.A %.[.XX%X$X$X$X$X$X$X$X$X$X",
"$X$X$X$X$X$X$X$X$X$X$X$X%X6.' { ,.=.{.oX$X$X$X$X$X$X$X$X$X$X$X$X"
};
