/* XPM */
static char *_628078973304[] = {
/* columns rows colors chars-per-pixel */
"32 32 39 1 ",
"  c black",
". c #202F38",
"X c #402C1C",
"o c #753E2D",
"O c #474D17",
"+ c #6E433E",
"@ c #636033",
"# c #000156",
"$ c #271F77",
"% c #2D4A75",
"& c #3C4D77",
"* c #7D4D5F",
"= c #4C5B64",
"- c #AB704C",
"; c #8B507C",
": c #968E5E",
"> c #D48C52",
", c #D39B68",
"< c #091A94",
"1 c #5460A0",
"2 c #122CD4",
"3 c #130FFF",
"4 c #4538C2",
"5 c #5C38EC",
"6 c #526CD5",
"7 c #A8788B",
"8 c #82929C",
"9 c gray58",
"0 c #BB8582",
"q c #C59896",
"w c #EBB385",
"e c #F3D7A7",
"r c #FFD9AD",
"t c #8598EB",
"y c #ADB5FF",
"u c #B9C4C8",
"i c LightGray",
"p c #E1F5F8",
"a c None",
/* pixels */
"aaaaaaaaaaaa++XXXXX++aaaaaaaaaaa",
"aaaaaaaaaa++-ee,X,ee,++aaaaaaaaa",
"aaaaaaaaa+-,,,--+--,,,-+aaaaaaaa",
"aaaaaaaa+,ee++++-++++e,-+aaaaaaa",
"aaaaaaa+-e++----++---++,-Xaaaaaa",
"aaaaaaa+,+--,,+X+XX,---+-+aaaaaa",
"aaaaaaX-+-,,-eXX+XXe-,--+-Xaaaaa",
"aaaaaa+-+,-e+,X777X,+,--+-Xaaaaa",
"aaaaaa-X-e+eX-XqqqX-X,+--X+aaaaa",
"aaaaa+,X-eX-X+qrrrq+X-X--X++aaaa",
"aaaaX,-X+,X+X+qrrrq+X+X-+X++Xaaa",
"aaaaa++XX+X-+++rrr+++-X+XX++aaaa",
"aaaaaXX0X*09  wwwww  90*X0XXaaaa",
"aaaaaXXwX+wi  wwwww  iw+XwXXaaaa",
"aaaaaXaX >wi;;wwwww;;iw> XaXaaaa",
"aaaaaaaX owi;;--r--;;iwo Xaaaaaa",
"aaaaaaaa  -wr-ee+ee-rw-  aaaaaaa",
"aaaaaa..=.+--e,-+-,e--+.=..aaaaa",
"aaaaa.8uppX+,,-XwX-,,+Xpuu8.aaaa",
"aaaa.==88uuXXXXoooXXXXuu88==.aaa",
"aaa.=8uppu8855.$5$.55==8puu8=.aa",
"aaa.=..==8uu54=545=45888==..=.aa",
"aaaOO@O<#..===OO4OO===..#<O@OOaa",
"aa=O@:3#tt O.O@@@@@O.O tt#3:@O=a",
"aa=@::2%y6 O#@:::::@#O 6y%2::@=a",
"aa8@:3#%6# #<@@@@@@@<# #6%#3:@8a",
"aa8O:3O    O#<22222<#O    O3:O8a",
"aa8O@2O O O@2@:@@@:@2@O O O2@O8a",
"aa8=O<@ O O@3:::::::3@O O @<O=8a",
"aa==.O<O .O@<@:::::@<@O. O<O.==a",
"aa.=..    OO#O@@@@@O#OO    ..=.a",
"aaa.  aaaaa &1& a &1& aaaaa  .aa"
};
