/* XPM */
static char *_628079000498[] = {
/* columns rows colors chars-per-pixel */
"32 32 44 1 ",
"  c black",
". c gray8",
"X c #2A2638",
"o c #202F38",
"O c #402C1C",
"+ c #753E2D",
"@ c #474D17",
"# c #6E433E",
"$ c #636033",
"% c #000156",
"& c #263640",
"* c #2B3B45",
"= c #271F77",
"- c #2D4A75",
"; c #3C4D77",
": c #4C5B64",
"> c #616C73",
", c #AB704C",
"< c #8B507C",
"1 c #9B6466",
"2 c #B07269",
"3 c #AF7974",
"4 c #968E5E",
"5 c #D48C52",
"6 c #D39B68",
"7 c #091A94",
"8 c #5460A0",
"9 c #122CD4",
"0 c #130FFF",
"q c #4538C2",
"w c #5C38EC",
"e c #526CD5",
"r c #82929C",
"t c gray58",
"y c #BB8582",
"u c #C59896",
"i c #EBB385",
"p c #F3D7A7",
"a c #FFD9AD",
"s c #ADB5FF",
"d c #B9C4C8",
"f c LightGray",
"g c #E1F5F8",
"h c None",
/* pixels */
"hhhhhhhhhhhh#####OO###hhhhhhhhhh",
"hhhhhhhhhh##,666,,#,6,,#hhhhhhhh",
"hhhhhhhhh#,6pppp66#####,#hhhhhhh",
"hhhhhhhh#,6p6pp6##,,,,####hhhhhh",
"hhhhhhhO,,6,pp###,,,,66O,#hhhhhh",
"hhhhhhh#,6,6p###,,66#6p1#,#hhhhh",
"hhhhhhO,,,,p6##,6#6p#,6a#,#hhhhh",
"hhhhhO#,#,66,##,,#,6O,,aO##hhhhh",
"hhhhhhOO,,66O###,O,,O##a2##hhhhh",
"hhhhhhO#,#6,O#O#,O##3uua+OOhhhhh",
"hhhhhhO,##,,O#O##1,###ai hhhhhhh",
"hhhhhO##O#,#OOOyi5t  iii hhhhhhh",
"hhhhhhOOO##.i#Oii5f  iii hhhhhhh",
"hhhhhhhOO#O.i#5aaif<<iii hhhhhhh",
"hhhhhhhOOOOOOO5aaaf<<a,,,#hhhhhh",
"hhhhhhhOh.OOO.5aaa,aa,pp,,hhhhhh",
"hhhhhhhh&>oOO:oiaa#,,p6,#,Ohhhhh",
"hhhhhhhho:rOggr:oaO#66,O##Ohhhhh",
"hhhhhhho:::rrdggro-OOOOhOOhhhhhh",
"hhhhhho::rddggdr:qwX Xhhhhhhhhhh",
"hhhhho::r:oo:rdgr=qrw=Xhhhhhhhhh",
"hhhhho:::@@$$ oo@@X:q=Xhhhhhhhhh",
"hhhho::oo@$44@ $$44$X@5+hhhhhhhh",
"hhhhorooo$444@@@@444$@5 hhhhhhhh",
"hhho::oo $44$$ -- $$$@- hhhhhhhh",
"hhhorooo @$$404es @@ @- hhhhhhhh",
"hho::oooo $$$94ee%779  hhhhhhhhh",
"hhorooooo @$$7$  $$$@ hhhhhhhhhh",
"hho:o      @$7@ $$44@ hhhhhhhhhh",
"hhho hhhhh  @% @@@@@  hhhhhhhhhh",
"hhhhhhhhhhhh     **;8*hhhhhhhhhh",
"hhhhhhhhhhhhhhhhhhhhhhhhhhhhhhhh"
};
