/* XPM */
static char *_628078992236[] = {
/* columns rows colors chars-per-pixel */
"32 32 44 1 ",
"  c black",
". c gray8",
"X c #2A2638",
"o c #202F38",
"O c #402C1C",
"+ c #753E2D",
"@ c #474D17",
"# c #6E433E",
"$ c #636033",
"% c #000156",
"& c #263640",
"* c #2B3B45",
"= c #271F77",
"- c #2D4A75",
"; c #3C4D77",
": c #4C5B64",
"> c #616C73",
", c #AB704C",
"< c #8B507C",
"1 c #9B6466",
"2 c #B07269",
"3 c #AF7974",
"4 c #968E5E",
"5 c #D48C52",
"6 c #D39B68",
"7 c #091A94",
"8 c #122CD4",
"9 c #130FFF",
"0 c #4538C2",
"q c #5C38EC",
"w c #526CD5",
"e c #82929C",
"r c gray58",
"t c #BB8582",
"y c #C59896",
"u c #EBB385",
"i c #F3D7A7",
"p c #FFD9AD",
"a c #8598EB",
"s c #ADB5FF",
"d c #B9C4C8",
"f c LightGray",
"g c #E1F5F8",
"h c None",
/* pixels */
"hhhhhhhhh###OO#####hhhhhhhhhhhhh",
"hhhhhhh#,,6,#,,666,##hhhhhhhhhhh",
"hhhhhh#,#####66iiii6,#hhhhhhhhhh",
"hhhhh####,,,,##6ii6i6,#hhhhhhhhh",
"hhhhh#,O66,,,,###ii,6,,Ohhhhhhhh",
"hhhh#,#1i6#66,,###i6,6,#hhhhhhhh",
"hhhh#,#p6,#i6#6,##6i,,,,Ohhhhhhh",
"hhhh##Op,,O6,#,,##,66,#,#Ohhhhhh",
"hhhh##2p##O,,O,###O66,,OOhhhhhhh",
"hhhhOO+pyy3##O,#O#O,6#,#Ohhhhhhh",
"hhhhhh up###,1##O#O,,##,Ohhhhhhh",
"hhhhhh uuu  r5utOOO#,#O##Ohhhhhh",
"hhhhhh uuu  f5uuO#u.##OOOhhhhhhh",
"hhhhhh uuu<<fupp5#u.O#OOhhhhhhhh",
"hhhhh#,,,p<<fppp5OOOOOOOhhhhhhhh",
"hhhhh,,ii,pp,ppp5.OOO.hOhhhhhhhh",
"hhhhO,#,6i,,#ppuo:OOo>&&hhhhhhhh",
"hhhhO##O,66#Opo:eggOe:oohhhhhhhh",
"hhhhhOOhOOOO+oeggdee::::ohhhhhhh",
"hhhhhhhhhX Xq0:edggdde:::ohhhhhh",
"hhhhhhhhX=qe0=egde:oo:e:o:ohhhhh",
"hhhhhhhhX=0:X@o @$4$@ :e:oohhhhh",
"hhhhhhhhh@X4   @$444$ o:e::ohhhh",
"hhhhhhhhh@$ sw494$4$@ oo:e:ohhhh",
"hhhhhhhhh@$ aw$84@$$ @ooo:::ohhh",
"hhhhhhhhh   --$7$$$@ @oooo:eohhh",
"hhhhhhhhhh8$  $7$$$ @@@oooo::ohh",
"hhhhhhhhhh@44 @%$$@ $@@oooooeohh",
"hhhhhhhhhh$44$%@@  @$$@    o:ohh",
"hhhhhhhhh **$$%@@@@**@ hhhh ohhh",
"hhhhhhhhh       **;;* hhhhhhhhhh",
"hhhhhhhhhhhhhhhhhhhhhhhhhhhhhhhh"
};
