/* XPM */
static char *_628078983034[] = {
/* columns rows colors chars-per-pixel */
"32 32 13 1 ",
"  c black",
". c #202F38",
"X c #402C1C",
"o c #6E433E",
"O c #263640",
"+ c #4C5B64",
"@ c #AB704C",
"# c #D39B68",
"$ c #82929C",
"% c #F3D7A7",
"& c #FFD9AD",
"* c #B9C4C8",
"= c None",
/* pixels */
"============ooXXXXXoo===========",
"==========oo@%%#X#%%@oo=========",
"=========o@###@@o@@###@o========",
"========o#%%%%##@##%%%%#o=======",
"=======o@%%%###@@@###%%%@o======",
"=======o#%##%%%#@######@#o======",
"======X@@##%%%######%%##@@X=====",
"======o@##@%%#%####%%@@#@@o=====",
"======@##@#@#%%#%#%%##o@o@@=====",
"=====o@#@@o##%%#%#%%##o@@o@o====",
"=====o@o@o@#@%@#%@#%@#@o@o@X====",
"=====ooX@o#@##o@#@##o@@ooXoX====",
"=====oXXo@#@#@o@#o@#Xo@XoXXX====",
"=====X=Xo@@o@o@o@Xo@XoXXoX=X====",
"========Xo@X@o@o@oX@XoXXXX======",
"========XXoXo@o@ooXooXoXXX======",
"=========XXX@@o@@ooooXoX========",
"======  OOXXo@Xo@oXooXXOO  =====",
"=====.+++OO&XoXo@oXoXOO.+$+.====",
"====.$+$+$+  X&XXX&X .+++$++.===",
"===.+*$$*+$$+.......++++$$+++.==",
"===+$*$$**+$*****$$$$+++$++$+.==",
"==.+***$$*$..$***$$$+++$*++$++.=",
"==.$****$**$+.....++++$**+$$++.=",
"==+$*****$***$++++++$$**$+$$++.=",
"==+**$*************$$***+$$$++.=",
"==+**$***********$$*****+$$+++.=",
"==+**$$*****************$$$+++.=",
"==+**$$****************$$$$+++.=",
"==..+$$$***************$$$+++..=",
"====...+$$************$$$+...===",
"=======   ..+++++++++..   ======"
};
