/* XPM */
static char *_628074005103[] = {
/* columns rows colors chars-per-pixel */
"32 32 45 1 ",
"  c #47385C",
". c #493A5F",
"X c #4D3F64",
"o c #4E4165",
"O c #514466",
"+ c #534669",
"@ c #564A6B",
"# c #594D6D",
"$ c #5D516F",
"% c #5E5371",
"& c #615673",
"* c #645A76",
"= c #665D79",
"- c #685E79",
"; c #6C637C",
": c #70677F",
"> c #71697F",
", c #6F6983",
"< c #746C82",
"1 c #786F83",
"2 c #777086",
"3 c #7C7486",
"4 c #77718A",
"5 c #7D7689",
"6 c #7F788A",
"7 c #827C8C",
"8 c #827F92",
"9 c #86818F",
"0 c #868291",
"q c #898592",
"w c #8D8A95",
"e c #878599",
"r c #89879B",
"t c #8D8B9A",
"y c #908E9B",
"u c #93929E",
"i c #8E8EA0",
"p c #9696A2",
"a c #9798A5",
"s c #9999A5",
"d c #9B9DA9",
"f c #9EA0AD",
"g c #A1A5AF",
"h c #A6AAB6",
"j c #AFB6C0",
/* pixels */
"33333q753333777t;3333337>2777713",
"3377773737979770&3373777&&797733",
"979001,u9797wye*-335777>#X&>3973",
"7736:@&8u77775&@133377797#O +-1>",
"7777622>77<<-$@>33333377q7;+@>77",
"3339957377779w5<333077777qw93333",
"33799333333377y41377777qq9yq7333",
"337733333333669r<79wwy0q99q73373",
"77933333773777eu$;3r0t90wwpp6373",
"77u733337q770w9a@oXoX#=0st3;2776",
"51y977777999ddta@o@$$=26;;937775",
"9;0ww9wussyuhjd<+:3667qtw7q73333",
"w$@<e7ydpt8er6%+;333337q9u773366",
"<##*369pp3@@@@&<333333979a$=666;",
"*&1379wtpf-25137773333332<OO$&=+",
"553327779y$3t78w3332;;96>;&>333>",
"33333379qf,3tqq97723uq965577>>77",
"535336w9thr&77q0q>euqq9777>7>*w7",
"q799777td4#O;;&#O$at77tq97>>;&p9",
"uwtw732<$o&rppq65&yuww9q9577;+w9",
">80;@oOoO;0uuwqq9=9dqy9qqqqq& &q",
"#o..o@@@<pyw73333;$9yutpdt97@+;>",
"=$@#$@@Oufq6979736;;;;$@@#+$=<96",
"367769;@7suyt973693>22;;O&>6q777",
"3377772><;er64<;77377376>2676633",
"333363777&<ee0<;q770999003633333",
"7773q7777;yutq9;2qqq9q7at3733333",
"=:6777q761u9767<+;>qppph6<t07637",
">>>377y731q73333@$$>9361O+:32;>6",
"733>3777>3353397=67763w8%o=3<773",
"7>3777>3337w797q6733667t6<yu9733",
"77377977327979us2233663946977633"
};
